<svg width="110" height="110" viewBox="0 0 110 110" fill="none" xmlns="http://www.w3.org/2000/svg">
<g filter="url(#filter0_d)">
<rect x="20" y="15" width="70" height="70" fill="#E3B873"/>
</g>
<path d="M78 42.1814C78 40.2559 76.4337 38.6895 74.5081 38.6895H70.1696V36.4867C70.1696 36.1309 69.8813 35.8422 69.5251 35.8422H68.0339V32.2157C68.0339 31.8598 67.7456 31.5711 67.3894 31.5711H62.3392V30.792C62.3392 30.4362 62.0505 30.1475 61.6947 30.1475H50.305C49.9491 30.1475 49.6604 30.4362 49.6604 30.792V31.5711H44.6103C44.2541 31.5711 43.9657 31.8598 43.9657 32.2157V35.8422H42.4746C42.1187 35.8422 41.83 36.1309 41.83 36.4867V38.6895H37.4919C35.5663 38.6895 34 40.2559 34 42.1814V50.7238C34 51.08 34.2887 51.3683 34.6445 51.3683H35.4233V66.3846C35.4233 68.3101 36.99 69.8764 38.9152 69.8764H73.0844C75.01 69.8764 76.5763 68.3101 76.5763 66.3846V51.3683H77.3555C77.5263 51.3683 77.6905 51.3005 77.8113 51.1797C77.9322 51.0588 78 50.895 78 50.7238V42.1814ZM68.8806 37.1312V38.6895H65.8986V37.1312H68.8806ZM50.9495 31.4365H61.0502V32.9948H50.9495V31.4365ZM43.1191 37.1312H46.1014V38.6895H43.1191V37.1312ZM75.2873 66.3846C75.2873 67.5994 74.299 68.5874 73.0844 68.5874H38.9152C37.7007 68.5874 36.7124 67.5994 36.7124 66.3846V51.3683H41.118V52.9266H40.3389C39.9831 52.9266 39.6944 53.2153 39.6944 53.5711V56.4185C39.6944 56.7743 39.9831 57.063 40.3389 57.063H41.118V59.2658C41.118 59.5102 41.256 59.7331 41.4745 59.8422L44.3219 61.2662C44.4125 61.3119 44.5112 61.3344 44.6103 61.3344C44.709 61.3344 44.8076 61.3119 44.8983 61.2662L47.7456 59.8422C47.9638 59.7331 48.1021 59.5102 48.1021 59.2658V57.063H48.881C49.2371 57.063 49.5255 56.7743 49.5255 56.4185V53.5711C49.5255 53.2153 49.2371 52.9266 48.881 52.9266H48.1021V51.3683H52.5078V54.2831C52.5078 54.639 52.7965 54.9277 53.1523 54.9277H58.8474C59.2032 54.9277 59.4919 54.639 59.4919 54.2831V51.3683H63.8975V52.9266H63.1184C62.7622 52.9266 62.4738 53.2153 62.4738 53.5711V56.4185C62.4738 56.7743 62.7622 57.063 63.1184 57.063H63.8975V59.2658C63.8975 59.5099 64.0352 59.7331 64.2537 59.8422L67.101 61.2662C67.1917 61.3119 67.2907 61.3344 67.3894 61.3344C67.4881 61.3344 67.5868 61.3119 67.6778 61.2662L70.5251 59.8422C70.7433 59.7331 70.8813 59.5102 70.8813 59.2658V57.063H71.6604C72.0166 57.063 72.305 56.7743 72.305 56.4185V53.5711C72.305 53.2153 72.0166 52.9266 71.6604 52.9266H70.8813V51.3683H75.2873V66.3846ZM42.4074 50.7255C42.4074 50.7251 42.4074 50.7245 42.4074 50.7238C42.4074 50.7234 42.4074 50.7228 42.4074 50.7221V48.521H46.8131V52.9266H42.4074V50.7255ZM40.9838 47.2319V45.6733H48.2368V47.2319H40.9838ZM48.2368 54.2157V55.774H40.9838V54.2157H48.2368ZM46.8131 57.063V58.8677L44.6103 59.9695L42.4074 58.8677V57.063H46.8131ZM55.3555 51.3683V52.1475C55.3555 52.5036 55.6438 52.792 56 52.792C56.3558 52.792 56.6445 52.5036 56.6445 52.1475V51.3683H58.2028V53.6386H53.7968V51.3683H55.3555ZM53.7968 50.0793V49.233H58.2028V50.0793H53.7968ZM65.1866 50.7255C65.1866 50.7251 65.1866 50.7245 65.1866 50.7238C65.1866 50.7234 65.1866 50.7228 65.1866 50.7221V48.521H69.5922V52.9266H65.1866V50.7255ZM63.7629 47.2319V45.6733H71.0159V47.2319H63.7629ZM71.0159 54.2157V55.774H63.7629V54.2157H71.0159ZM69.5922 57.063V58.8677L67.3894 59.9695L65.1866 58.8677V57.063H69.5922ZM75.9345 50.0793C75.9335 50.0793 75.9328 50.0793 75.9318 50.0793C75.9311 50.0793 75.9301 50.0793 75.9294 50.0793H70.8813V48.521H71.6604C72.0166 48.521 72.305 48.2323 72.305 47.8764V45.6736H72.3724C72.7286 45.6736 73.017 45.3849 73.017 45.0291C73.017 44.6729 72.7286 44.3846 72.3724 44.3846H62.4067C62.0505 44.3846 61.7622 44.6729 61.7622 45.0291C61.7622 45.3849 62.0505 45.6736 62.4067 45.6736H62.4738V47.8764C62.4738 48.2323 62.7625 48.521 63.1184 48.521H63.8975V50.0793H59.4919V48.5884C59.4919 48.2323 59.2032 47.9439 58.8474 47.9439H53.1523C52.7965 47.9439 52.5078 48.2323 52.5078 48.5884V50.0793H48.1021V48.521H48.8813C49.2371 48.521 49.5258 48.2323 49.5258 47.8764V45.6736H49.5933C49.9491 45.6736 50.2378 45.3849 50.2378 45.0291C50.2378 44.6729 49.9491 44.3846 49.5933 44.3846H39.6272C39.2714 44.3846 38.9827 44.6729 38.9827 45.0291C38.9827 45.3849 39.2714 45.6736 39.6272 45.6736H39.6947V47.8764C39.6947 48.2323 39.9831 48.521 40.3392 48.521H41.1184V50.0793H35.2891V42.1814C35.2891 40.9669 36.2773 39.9786 37.4919 39.9786H49.5933C49.9491 39.9786 50.2378 39.6899 50.2378 39.334C50.2378 38.9782 49.9491 38.6895 49.5933 38.6895H47.3905V36.4867C47.3905 36.1309 47.1018 35.8422 46.7459 35.8422H45.2548V32.8602H49.6604V33.6393C49.6604 33.9955 49.9491 34.2839 50.305 34.2839H61.6947C62.0505 34.2839 62.3392 33.9955 62.3392 33.6393V32.8602H66.7452V35.8422H65.2541C64.8979 35.8422 64.6095 36.1309 64.6095 36.4867V38.6895H52.1754C51.8196 38.6895 51.5309 38.9782 51.5309 39.334C51.5309 39.6899 51.8196 39.9786 52.1754 39.9786H74.5081C75.7227 39.9786 76.7109 40.9669 76.7109 42.1814V50.0793H75.9345Z" fill="white"/>
<path d="M38.271 66.3843C38.271 66.7404 38.5594 67.0288 38.9156 67.0288H73.0844C73.4403 67.0288 73.729 66.7404 73.729 66.3843C73.729 66.0284 73.4403 65.7397 73.0844 65.7397H38.9156C38.5594 65.7397 38.271 66.0284 38.271 66.3843Z" fill="white"/>
<defs>
<filter id="filter0_d" x="0" y="0" width="110" height="110" filterUnits="userSpaceOnUse" color-interpolation-filters="sRGB">
<feFlood flood-opacity="0" result="BackgroundImageFix"/>
<feColorMatrix in="SourceAlpha" type="matrix" values="0 0 0 0 0 0 0 0 0 0 0 0 0 0 0 0 0 0 127 0"/>
<feOffset dy="5"/>
<feGaussianBlur stdDeviation="10"/>
<feColorMatrix type="matrix" values="0 0 0 0 0.890196 0 0 0 0 0.721569 0 0 0 0 0.45098 0 0 0 0.5 0"/>
<feBlend mode="normal" in2="BackgroundImageFix" result="effect1_dropShadow"/>
<feBlend mode="normal" in="SourceGraphic" in2="effect1_dropShadow" result="shape"/>
</filter>
</defs>
</svg>
